
<svg width="410px" height="81px" viewBox="0 0 410 81" version="1.1" xmlns="http://www.w3.org/2000/svg" xmlns:xlink="http://www.w3.org/1999/xlink">
    <defs>
        <filter x="-1.4%" y="-15.1%" width="102.7%" height="134.0%" filterUnits="objectBoundingBox" id="filter-1">
            <feOffset dx="0" dy="2" in="SourceAlpha" result="shadowOffsetOuter1"></feOffset>
            <feGaussianBlur stdDeviation="2" in="shadowOffsetOuter1" result="shadowBlurOuter1"></feGaussianBlur>
            <feColorMatrix values="0 0 0 0 0   0 0 0 0 0   0 0 0 0 0  0 0 0 0.5 0" type="matrix" in="shadowBlurOuter1" result="shadowMatrixOuter1"></feColorMatrix>
            <feMerge>
                <feMergeNode in="shadowMatrixOuter1"></feMergeNode>
                <feMergeNode in="SourceGraphic"></feMergeNode>
            </feMerge>
        </filter>
    </defs>
    <g id="Page-1" stroke="none" stroke-width="1" fill="none" fill-rule="evenodd">
        <g id="app-bar" filter="url(#filter-1)" transform="translate(-19.000000, -13.000000)" fill="#FFFFFF">
            <g id="Logo" transform="translate(23.000000, 15.000000)">
                <path d="M18.4656899,56.1542423 L11.9317188,50.2745802 C10.5501644,49.034221 9.54249202,46.8443211 9.54249202,45.0849556 L9.54249202,34.3610161 C9.54249202,33.6624161 9.05767034,32.416312 8.57602857,31.8716839 L0.524221505,22.8157181 C-0.299633021,21.8890255 -0.13487834,20.5374193 0.894964153,19.7960652 C1.92478231,19.057558 3.42679988,19.2058215 4.24749072,20.132536 L12.3024615,29.1914217 C13.4622338,30.4945581 14.3146426,32.6873048 14.3146426,34.3610453 L14.3146426,45.0849848 C14.3146426,45.7037483 14.8216425,46.8015743 15.3064966,47.2406492 L19.9898776,51.4550384 L27.5283574,30.5451448 C24.5338944,27.9988022 22.6643222,24.3917452 22.6643222,20.394229 L22.6643222,2.1509034 C22.6643222,0.317446252 25.0567127,-0.672052693 26.6031029,0.519865994 L34.2841916,6.445151 L46.8358863,6.445151 L54.516975,0.519865994 C56.0632841,-0.672052693 58.4557557,0.317417053 58.4557557,2.1509034 L58.4557557,20.394229 C58.4557557,24.3948111 56.5861835,28.0019411 53.5917205,30.5451448 L61.9916946,53.8500589 C65.7434937,64.2579229 58.6803769,73 46.5286038,73 L34.5950434,73 C23.3396461,73 16.4574269,65.523685 18.4659576,56.1538335 L18.4656899,56.1542423 Z M49.640916,33.6923077 C47.6542132,34.5120037 45.4361665,34.9695703 43.0977429,34.9695703 L38.3416452,34.9695703 C36.0032217,34.9695703 33.7883385,34.5119894 31.7984721,33.6923077 L23.829435,55.4653489 C21.0727753,62.9918056 25.828792,68.7884615 34.7550026,68.7884615 L46.6880358,68.7884615 C55.5978609,68.7884615 60.3634493,62.9831099 57.6136034,55.4653489 L49.640916,33.6923077 Z M26.1225164,20.139196 C26.1225164,25.3005528 30.9097377,29.4807692 36.8164021,29.4807692 L41.5500167,29.4807692 C47.4599104,29.4807692 52.2439024,25.3004117 52.2439024,20.139196 L52.2439024,7.01923077 L47.8509,10.3067704 C47.4220063,10.6291824 46.8733048,10.8083032 46.3055908,10.8083032 L32.0602629,10.8083032 C31.4926134,10.8083032 30.9438877,10.6291824 30.5149536,10.3067704 L26.1219512,7.01923077 L26.1225164,20.139196 Z" id="Fill-1"></path>
                <path d="M40.6351443,44 L38.2917409,61.7656242 L38.2545455,62 L40.7103103,62 L43.0537136,44.2343758 L43.0909091,44 L40.6351443,44 Z M36.8727273,46.9454545 L36.2487523,47.4558188 L31.5505705,51.1676237 L31,51.5851988 L31,54.742074 L31.5505705,55.159649 L36.2487523,58.8714539 L36.8727273,59.3818182 L36.8727273,55.8555442 L33.4592163,53.1635651 L36.8727273,50.471586 L36.8727273,46.9454545 Z M44.1272727,46.9454545 L44.1272727,50.4716882 L47.5407837,53.1636364 L44.1272727,55.8555846 L44.1272727,59.3818182 L44.7512477,58.8714598 L49.4494295,55.1596974 L50,54.7421271 L50,51.5852881 L49.4494295,51.1677178 L44.7512477,47.4559555 L44.1272727,46.9454545 Z" id="Fill-1"></path>
                <text id="MJAOX-DEVELOPMENT-ST" font-family="Aldrich-Regular, Aldrich" font-size="20" font-weight="normal" line-spacing="28">
                    <tspan x="81" y="42">MJAOX DEVELOPMENT STUDIO</tspan>
                </text>
            </g>
        </g>
    </g>
</svg>
